<svg width="128" height="200" viewBox="0 0 128 200" fill="none" xmlns="http://www.w3.org/2000/svg">
<path d="M88.0454 109.555C86.9325 109.555 85.8034 109.412 84.7067 109.268C83.7067 109.14 82.7067 108.965 81.7067 108.773C79.7712 108.39 77.8357 107.959 76.0131 107.129C75.4325 106.873 74.8357 106.634 74.2873 106.33C73.7228 106.043 73.1744 105.74 72.6099 105.452C72.2067 105.245 71.8196 104.989 71.4163 104.75C70.6744 104.303 69.9486 103.856 69.2389 103.377C66.8034 101.7 64.6421 99.6248 62.9809 97.1821C62.4486 96.3997 61.997 95.5855 61.5615 94.7393C61.1583 93.957 60.7712 93.1907 60.4002 92.3924C59.8357 91.1311 59.3357 89.8379 59.0131 88.4809C58.6583 87.028 58.4486 85.4953 58.3841 84.0105C58.3196 82.5257 58.4002 81.0729 58.5615 79.604C58.7228 78.0554 58.9486 76.5387 59.3357 75.0379C59.7067 73.601 60.2228 72.212 60.7873 70.8549C61.368 69.4659 62.0131 68.1089 62.8196 66.8476C64.3841 64.3729 66.497 62.2655 68.8518 60.5252C69.5615 60.0143 70.2873 59.5513 71.0454 59.1043C71.6421 58.7531 72.2228 58.3859 72.8357 58.0666C76.7389 55.991 81.1422 54.618 85.5938 54.3785C86.0938 54.3466 86.5776 54.3306 87.0776 54.3147C87.4486 53.5164 88.3196 53.0534 89.2389 53.1492C91.4002 53.3887 93.5615 53.6441 95.7067 53.9794C96.7389 54.139 97.7873 54.3306 98.8196 54.5382C99.8518 54.7457 100.884 54.9692 101.884 55.2726C102.949 55.6079 103.981 55.991 104.981 56.5019C105.868 56.949 106.739 57.4599 107.562 58.0027C109.4 59.232 111.174 60.5412 112.836 62.01C114.465 63.4469 115.997 64.9796 117.352 66.6879C118.013 67.5341 118.691 68.3803 119.271 69.2903C119.916 70.2642 120.513 71.2541 121.029 72.2918C122.013 74.2715 122.739 76.363 123.239 78.5184C123.707 80.5779 123.836 82.6534 123.658 84.7449C123.578 85.6709 123.465 86.581 123.255 87.507C122.949 88.8481 122.513 90.1572 121.916 91.4025C121.158 92.9672 120.142 94.3562 119.126 95.7611C118.771 96.2401 118.352 96.6871 117.965 97.1501C117.61 97.5652 117.239 97.9484 116.852 98.3475C116.529 98.6828 116.223 99.0341 115.868 99.3374C115.368 99.7844 114.868 100.231 114.368 100.679C113.949 101.046 113.497 101.381 113.062 101.732C112.691 102.036 112.303 102.323 111.916 102.61C111.384 102.993 110.852 103.377 110.287 103.744C108.932 104.622 107.529 105.404 106.045 106.059C105.158 106.458 104.239 106.809 103.32 107.129C102.691 107.336 102.062 107.576 101.432 107.751C100.432 108.039 99.4325 108.326 98.4163 108.549C97.8357 108.677 97.2551 108.837 96.6583 108.933C96.0292 109.028 95.4163 109.14 94.7873 109.236C94.368 109.3 93.9486 109.348 93.5131 109.38C92.9163 109.444 92.3357 109.507 91.7389 109.539C91.1099 109.571 90.4647 109.587 89.8357 109.619C89.6905 109.619 89.5454 109.619 89.4002 109.619C88.9486 109.619 88.5131 109.603 88.0615 109.587L88.0454 109.555ZM89.0615 105.532C90.0131 105.532 90.9486 105.5 91.9002 105.468C91.8196 105.468 91.7228 105.468 91.6422 105.468C92.4002 105.388 93.1583 105.324 93.9163 105.245C94.3034 105.213 94.6905 105.117 95.0615 105.053C95.368 105.005 95.6905 104.957 95.997 104.909C96.7389 104.75 97.4809 104.574 98.2228 104.414C98.9163 104.255 99.6099 104.031 100.303 103.824C101.723 103.345 103.142 102.882 104.513 102.275C105.497 101.812 106.465 101.301 107.384 100.742C108.271 100.184 109.11 99.5769 109.965 98.9702C110.529 98.5711 111.062 98.1081 111.594 97.677C112.126 97.198 112.658 96.735 113.174 96.2561C113.432 96.0325 113.642 95.7611 113.884 95.5216C114.126 95.2822 114.368 95.0267 114.594 94.7872C115.029 94.2604 115.449 93.7495 115.884 93.2386C116.255 92.7915 116.578 92.2966 116.916 91.8176C117.336 91.195 117.723 90.5564 118.061 89.9018C118.32 89.3909 118.545 88.88 118.739 88.3531C118.949 87.7624 119.11 87.1557 119.255 86.549C119.432 85.639 119.529 84.729 119.61 83.803C119.626 83.2601 119.642 82.7333 119.61 82.1904C119.562 81.5359 119.497 80.8972 119.4 80.2586C119.207 79.2528 118.949 78.2789 118.658 77.289C118.497 76.826 118.32 76.363 118.158 75.9C118.013 75.4849 117.82 75.0698 117.642 74.6707C117.449 74.2716 117.239 73.8724 117.045 73.4733C116.852 73.0741 116.594 72.691 116.368 72.3078C115.884 71.5734 115.4 70.8709 114.884 70.1684C114.384 69.4819 113.82 68.8113 113.255 68.1568C112.4 67.2148 111.513 66.3048 110.578 65.4426C109.836 64.788 109.078 64.1494 108.303 63.5268C107.529 62.9201 106.739 62.3453 105.916 61.7865C104.981 61.1479 104.013 60.5572 103.013 60.0303C102.416 59.7589 101.836 59.5194 101.223 59.2959C100.207 58.9926 99.1905 58.7371 98.1583 58.5136C96.4002 58.1624 94.6422 57.8909 92.8841 57.6515C92.4486 58.2262 91.7067 58.5615 90.9486 58.4338C90.8196 58.4178 90.6744 58.4018 90.5454 58.3859C90.6099 58.3859 90.6905 58.3859 90.7551 58.4018C89.4002 58.322 88.0615 58.322 86.7067 58.338C86.2228 58.3539 85.7389 58.3539 85.2551 58.4178C84.6099 58.4976 83.9486 58.5934 83.3034 58.6732C82.1422 58.8808 81.0131 59.1522 79.8841 59.4715C78.6583 59.8547 77.4486 60.3337 76.2712 60.8446C75.4647 61.2277 74.6744 61.6269 73.9002 62.0739C73.4486 62.3453 72.997 62.6167 72.5292 62.8722C71.7228 63.399 70.9325 63.9578 70.1744 64.5645C69.497 65.1393 68.8518 65.746 68.2389 66.4006C67.6583 67.0392 67.126 67.6938 66.626 68.3962C66.2067 69.0189 65.8196 69.6575 65.4486 70.3281C64.8518 71.5414 64.3196 72.8027 63.8518 74.064C63.5454 74.9581 63.2712 75.8681 63.0615 76.7941C62.7873 78.1192 62.626 79.4603 62.5131 80.7855C62.4325 81.8232 62.4002 82.845 62.4325 83.8828C62.4809 84.697 62.5776 85.4953 62.7067 86.3095C62.8357 86.9961 62.9809 87.6826 63.1744 88.3531C63.4486 89.1993 63.7712 90.0135 64.1422 90.8278C64.7389 92.121 65.4002 93.3982 66.1421 94.6116C66.5292 95.2023 66.9486 95.7771 67.4002 96.3359C67.997 97.0224 68.6099 97.661 69.2873 98.2677C70.0131 98.9063 70.7873 99.513 71.5776 100.072C72.4809 100.679 73.4163 101.237 74.3518 101.796C74.9325 102.147 75.5292 102.435 76.1421 102.738C76.997 103.121 77.8518 103.52 78.7389 103.856C79.5131 104.111 80.2873 104.335 81.0776 104.51C81.868 104.67 82.6744 104.83 83.4809 104.973C84.4325 105.133 85.368 105.261 86.3196 105.388C87.2389 105.452 88.1421 105.5 89.0454 105.516L89.0615 105.532Z" fill="black"/>
<path d="M84.1743 75.916C83.1098 75.7563 82.2388 74.6866 82.4646 73.617C82.8195 71.9086 83.2227 70.2003 83.6421 68.492C84.0614 66.7837 84.4808 65.0754 84.9646 63.3671C85.2711 62.3134 86.4162 61.6907 87.4808 61.9781C88.5453 62.2814 89.1743 63.415 88.884 64.4687C88.0453 67.3744 87.3517 70.344 86.6904 73.2976C86.6259 73.601 86.5614 73.9043 86.4969 74.2077C86.384 74.7505 86.1259 75.2135 85.6743 75.5328C85.3195 75.7883 84.9001 75.916 84.4808 75.916C84.384 75.916 84.2711 75.916 84.1743 75.9V75.916Z" fill="black"/>
<path d="M91.0618 80.3864C90.5295 80.3065 90.0295 80.0032 89.723 79.5721C89.4005 79.1251 89.3037 78.6142 89.3521 78.0873C89.594 75.5967 89.8843 73.1061 90.1585 70.6314C90.3037 69.3702 90.4488 68.1089 90.6263 66.8636C90.7069 66.3207 90.7876 65.7619 90.8843 65.2191C90.9488 64.8359 91.0134 64.4528 91.223 64.1175C91.5456 63.6066 92.1263 63.1915 92.7553 63.1436C93.2876 63.1117 93.8037 63.2394 94.2392 63.5747C94.6585 63.9099 94.9327 64.4049 94.9972 64.9477C95.0295 65.2032 94.9972 65.4586 94.9327 65.6981C94.5618 67.8055 94.3359 69.9289 94.094 72.0364C93.8359 74.2556 93.594 76.4748 93.3682 78.71C93.2714 79.6998 92.3037 80.4183 91.3359 80.4183C91.2392 80.4183 91.1424 80.4183 91.0456 80.4023L91.0618 80.3864Z" fill="black"/>
<path d="M85.6907 94.1806C84.6423 93.8772 83.9649 92.7277 84.2874 91.69C84.6584 90.4766 85.5133 89.4228 86.352 88.5128C86.9326 87.8742 87.5616 87.3154 88.1745 86.7247C88.4971 86.4213 88.852 86.1499 89.1907 85.8785C89.8036 85.3836 90.4487 84.9206 91.1262 84.5214C92.481 83.7391 93.9326 83.2442 95.4487 82.893C96.6262 82.6215 97.8358 82.4779 99.0294 82.3182C100.207 82.1745 101.4 82.0787 102.594 82.1106C103.707 82.1585 104.61 83.0686 104.578 84.1702C104.546 85.2559 103.61 86.1819 102.497 86.134C102.207 86.134 101.9 86.134 101.61 86.134C100.191 86.2138 98.7875 86.4054 97.3681 86.6129C96.6745 86.7406 95.981 86.8843 95.3036 87.0759C94.852 87.2196 94.4004 87.3793 93.9649 87.5708C93.6745 87.7145 93.3842 87.8742 93.11 88.0339C92.5294 88.417 91.9649 88.8321 91.4165 89.2632C90.7229 89.8539 90.0616 90.4766 89.4326 91.1312C89.1584 91.4505 88.8842 91.7698 88.6262 92.1051C88.481 92.3286 88.352 92.5361 88.2229 92.7756C88.2229 92.8075 88.1907 92.8395 88.1745 92.8714C88.1745 92.9193 88.1423 92.9672 88.1262 93.0151C88.1262 92.9991 88.1262 92.9832 88.1423 92.9672C88.1423 92.9832 88.1423 92.9991 88.1262 93.0151C87.8036 93.7814 87.0455 94.2764 86.2229 94.2764C86.0455 94.2764 85.852 94.2444 85.6745 94.1965L85.6907 94.1806Z" fill="black"/>
<path d="M90.6744 161.539C86.3035 161.316 81.9164 161.012 77.5776 160.374C76.368 160.198 75.1583 160.022 73.9486 159.831C72.626 159.623 71.2873 159.384 70.0131 159.016C69.4486 158.857 68.868 158.649 68.368 158.362C67.9325 158.122 67.4164 157.803 67.1422 157.372C66.868 156.957 66.6422 156.542 66.5938 156.031C66.5615 155.776 66.5615 155.504 66.5615 155.249C66.5615 154.386 66.5615 153.508 66.5776 152.646C66.6422 148.479 66.8357 144.312 67.1906 140.161C67.5777 135.675 68.3035 131.205 69.0615 126.75C69.6422 123.381 70.2873 120.029 70.9164 116.66C71.2551 114.872 71.5938 113.068 71.9325 111.28C72.2551 109.555 72.5615 107.815 72.9486 106.091C72.9486 106.059 72.9486 106.027 72.9648 105.995C72.9648 105.947 72.9809 105.899 72.997 105.867C72.997 105.915 72.9809 105.947 72.9648 105.995C73.2228 104.973 74.1744 104.255 75.2551 104.414C76.3196 104.574 77.1744 105.628 76.9647 106.713C76.9486 106.809 76.9325 106.889 76.9002 106.985C76.4809 108.965 76.126 110.96 75.7551 112.94C75.3357 115.191 74.9002 117.442 74.4809 119.693C73.6906 123.924 72.8841 128.155 72.2551 132.418C71.868 135.1 71.497 137.798 71.2228 140.497C70.997 143.115 70.8518 145.733 70.7551 148.352C70.7067 149.677 70.6583 150.986 70.6422 152.295C70.626 153.173 70.5938 154.067 70.6099 154.945C70.7067 154.977 70.8035 155.025 70.9002 155.057C71.3357 155.201 71.7712 155.297 72.2067 155.408C76.0454 156.127 79.9002 156.622 83.7873 157.037C86.2873 157.244 88.7712 157.436 91.2873 157.516C93.9325 157.596 96.5776 157.612 99.2228 157.548C101.207 157.468 103.191 157.34 105.158 157.149C107.013 156.957 108.884 156.701 110.723 156.398C110.707 156.398 110.691 156.398 110.674 156.398C111.094 156.334 111.497 156.254 111.9 156.175C111.916 156.127 111.932 156.095 111.949 156.047C112.062 155.712 112.142 155.392 112.223 155.057C112.352 154.418 112.432 153.78 112.497 153.125C112.578 152.056 112.658 150.986 112.691 149.916C112.723 148.687 112.739 147.473 112.739 146.244C112.739 144.025 112.658 141.806 112.578 139.602C112.4 135.324 112.191 131.045 111.868 126.766C111.545 122.503 111.207 118.241 110.642 113.994C110.497 112.908 110.336 111.822 110.158 110.737C109.771 108.454 109.384 106.187 108.739 103.967C108.432 102.914 109.207 101.78 110.255 101.541C110.771 101.413 111.32 101.509 111.771 101.78C112.255 102.068 112.562 102.515 112.707 103.041C113.207 104.766 113.562 106.522 113.868 108.294C114.239 110.386 114.578 112.493 114.836 114.6C115.11 116.724 115.303 118.847 115.497 120.987C115.691 123.014 115.852 125.042 115.997 127.069C116.287 131.508 116.545 135.946 116.707 140.385C116.868 145.031 117.013 149.709 116.497 154.339C116.352 155.6 116.094 156.893 115.545 158.043C115.287 158.553 114.949 159.016 114.497 159.368C114.013 159.767 113.449 159.974 112.852 160.102C111.884 160.326 110.868 160.453 109.884 160.597C107.787 160.9 105.691 161.156 103.594 161.332C101.481 161.507 99.368 161.587 97.2551 161.619C96.5938 161.619 95.9325 161.619 95.2712 161.619C93.7551 161.619 92.2228 161.587 90.7067 161.523L90.6744 161.539Z" fill="black"/>
<path d="M63.9323 108.565C63.0936 108.486 62.2872 108.134 61.642 107.639C61.0291 107.161 60.5614 106.554 60.1743 105.883C59.8033 105.229 59.6259 104.494 59.4646 103.76C59.2872 102.914 59.2227 102.036 59.2227 101.173C59.2227 100.263 59.2388 99.3374 59.3678 98.4274C59.4807 97.5014 59.6097 96.5754 59.8356 95.6654C59.9807 95.0746 60.142 94.4999 60.3517 93.9251C60.6259 93.2226 61.3194 92.6958 62.0775 92.6319C63.1904 92.5201 64.2065 93.3344 64.3194 94.42C64.3678 94.8351 64.271 95.2503 64.0775 95.6015C64.0775 95.6015 64.0775 95.6334 64.0614 95.6494C63.9646 95.9847 63.8678 96.3199 63.7872 96.6552C63.5936 97.677 63.4323 98.6828 63.3356 99.7046C63.3033 100.407 63.3033 101.11 63.3194 101.828C63.3517 102.163 63.3839 102.499 63.4323 102.818C63.4807 103.089 63.5452 103.345 63.6259 103.616C63.6581 103.696 63.6904 103.776 63.7227 103.856C63.771 103.935 63.8033 104.015 63.8517 104.111C63.8678 104.143 63.9001 104.175 63.9162 104.207C63.9807 104.287 64.0614 104.367 64.1259 104.43C64.142 104.446 64.1743 104.462 64.2065 104.494C64.2388 104.494 64.271 104.51 64.3033 104.526C64.3839 104.526 64.4646 104.558 64.5614 104.574C64.5614 104.574 64.5775 104.574 64.5936 104.574C64.642 104.574 64.7065 104.574 64.7549 104.558C64.8839 104.526 65.013 104.494 65.1259 104.462C66.0452 104.159 66.9323 103.792 67.8194 103.393C68.3517 103.153 68.8839 102.898 69.4162 102.626C70.4162 102.131 71.642 102.451 72.1743 103.441C72.6904 104.383 72.3356 105.676 71.3517 106.171C69.7872 106.953 68.1904 107.687 66.513 108.23C65.8356 108.454 65.1743 108.565 64.4807 108.565C64.3033 108.565 64.1098 108.565 63.9323 108.534V108.565Z" fill="black"/>
<path d="M116.207 140.576C115.675 140.576 115.158 140.337 114.788 139.954C114.046 139.187 114.013 137.814 114.852 137.096C116.852 135.388 118.658 133.52 120.449 131.604C121.384 130.582 122.271 129.528 123.078 128.411C123.239 128.155 123.4 127.9 123.546 127.628C123.626 127.469 123.691 127.309 123.755 127.133C123.788 127.006 123.836 126.894 123.852 126.766C123.868 126.67 123.884 126.575 123.9 126.479C123.917 126.08 123.933 125.696 123.917 125.297C123.917 125.154 123.884 124.994 123.868 124.85C123.804 124.483 123.707 124.116 123.61 123.749C123.417 123.19 123.223 122.647 122.997 122.088C122.675 121.402 122.336 120.715 121.981 120.045C121.529 119.214 121.062 118.384 120.578 117.57C119.917 116.564 119.271 115.558 118.546 114.6C118.142 114.074 117.771 113.547 117.336 113.036C116.933 112.557 116.546 112.078 116.142 111.599C115.658 111.072 115.191 110.545 114.707 110.018C114.271 109.539 113.804 109.076 113.352 108.597C112.836 108.039 112.32 107.48 111.82 106.905C111.239 106.235 110.626 105.564 110.158 104.798C109.707 104.031 109.917 102.978 110.546 102.387C111.223 101.748 112.207 101.684 112.997 102.115C113.158 102.211 113.304 102.339 113.449 102.451C113.723 102.69 113.933 102.978 114.062 103.297C114.223 103.504 114.4 103.696 114.562 103.904C116.029 105.58 117.594 107.161 119.078 108.805C119.449 109.22 119.804 109.667 120.158 110.098C120.481 110.481 120.771 110.849 121.078 111.248C121.755 112.126 122.449 113.004 123.046 113.946C123.691 114.936 124.32 115.942 124.933 116.963C125.465 117.873 125.949 118.831 126.4 119.773C126.933 120.907 127.384 122.056 127.691 123.27C127.933 124.212 127.997 125.186 127.981 126.144C127.965 127.357 127.658 128.506 127.094 129.56C126.433 130.789 125.546 131.907 124.626 132.961C123.852 133.855 123.046 134.717 122.239 135.579C120.771 137.112 119.271 138.613 117.658 140.002C117.255 140.353 116.788 140.56 116.255 140.56C116.255 140.56 116.223 140.56 116.207 140.56V140.576Z" fill="black"/>
<path d="M55.6583 140.528C54.5131 140.497 53.3196 140.145 52.3841 139.459C51.868 139.092 51.4486 138.66 51.0776 138.166C50.6905 137.639 50.4647 137.016 50.3196 136.377C49.9809 134.956 50.2228 133.424 50.497 132.003C50.9164 129.816 51.9002 127.804 52.8841 125.824C53.9002 123.797 55.0454 121.817 56.2389 119.869C56.8196 118.911 57.4325 117.953 58.0454 117.011C58.626 116.117 59.2228 115.223 59.8518 114.345C60.4486 113.515 61.0131 112.669 61.6422 111.87C62.2873 111.024 62.9325 110.146 63.6099 109.332C65.0293 107.639 66.497 105.963 67.868 104.239C68.2873 103.696 68.7067 103.073 69.2551 102.658C70.126 101.972 71.4647 102.243 72.1099 103.105C72.4164 103.536 72.5454 104.079 72.4809 104.59C72.4002 105.101 72.126 105.516 71.7389 105.851C71.7873 105.819 71.8196 105.787 71.868 105.756C71.9325 105.692 71.9809 105.628 72.0454 105.564C71.6583 106.011 71.3034 106.49 70.9325 106.953C70.5776 107.4 70.2067 107.847 69.8357 108.294C69.0615 109.236 68.2551 110.146 67.4809 111.072C65.9647 112.892 64.5615 114.808 63.1744 116.724C62.0938 118.304 61.0131 119.885 60.0131 121.529C58.9164 123.334 57.868 125.17 56.868 127.038C56.2389 128.299 55.626 129.56 55.0776 130.853C54.9809 131.141 54.8841 131.412 54.7873 131.7C54.6905 131.971 54.626 132.274 54.5615 132.562C54.4647 133.057 54.3841 133.536 54.3196 134.046C54.2873 134.366 54.2712 134.685 54.2712 135.02C54.2712 135.196 54.3035 135.372 54.3196 135.547C54.3196 135.595 54.3357 135.643 54.3518 135.691C54.3518 135.723 54.368 135.755 54.3841 135.787C54.4164 135.835 54.4325 135.867 54.4647 135.914C54.4809 135.93 54.497 135.962 54.5131 135.978C54.5454 136.01 54.5776 136.042 54.6099 136.09C54.6583 136.122 54.6905 136.154 54.7389 136.202C54.8196 136.25 54.8841 136.298 54.9647 136.33C55.0454 136.361 55.1422 136.409 55.2228 136.441C55.2228 136.441 55.2228 136.441 55.2389 136.441C55.2228 136.441 55.1905 136.425 55.1583 136.409C55.2228 136.409 55.2712 136.441 55.3357 136.457C55.4164 136.473 55.5131 136.489 55.6099 136.505C55.8034 136.505 56.0131 136.521 56.2067 136.521C56.5293 136.505 56.8357 136.457 57.1583 136.409C57.626 136.314 58.0776 136.202 58.5293 136.09C59.2389 135.851 59.9486 135.595 60.6422 135.308C61.7551 134.797 62.8357 134.222 63.8841 133.583C64.7389 133.041 65.5776 132.466 66.4002 131.859C67.2873 131.205 68.5938 131.428 69.2389 132.306C69.9002 133.2 69.6744 134.478 68.7873 135.132C67.1422 136.33 65.4325 137.479 63.6099 138.373C61.2067 139.539 58.6099 140.56 55.9002 140.56C55.8196 140.56 55.7228 140.56 55.6422 140.56L55.6583 140.528Z" fill="black"/>
<path d="M62.0777 97.7888C60.997 97.4854 60.3841 96.3519 60.6744 95.2982C60.8357 94.7394 61.239 94.3402 61.6745 93.973C61.997 93.6856 62.3357 93.4302 62.6906 93.1747C63.3519 92.6958 64.0454 92.2328 64.739 91.8017C65.2067 91.5143 65.6906 91.3547 66.239 91.4345C66.7712 91.5143 67.2712 91.8177 67.5777 92.2487C68.2067 93.0949 68.0615 94.4839 67.1261 95.0587C66.2067 95.6334 65.2874 96.2401 64.4486 96.9266C64.368 97.0065 64.2874 97.0703 64.2067 97.1502C63.8196 97.5972 63.239 97.8686 62.6261 97.8686C62.4486 97.8686 62.2551 97.8367 62.0777 97.7888Z" fill="black"/>
<path d="M73.642 199.824C72.5452 199.585 71.4807 199.058 70.5775 198.388C70.142 198.068 69.7388 197.717 69.3839 197.286C68.9646 196.775 68.6581 196.232 68.4001 195.625C67.9807 194.668 67.9807 193.502 68.3033 192.528C68.4485 192.113 68.6743 191.746 68.9323 191.395C69.2227 190.964 69.6904 190.644 70.0936 190.325C71.0291 189.591 72.1581 189.159 73.3194 188.952C75.5614 188.553 77.8033 189.112 79.9807 189.67C79.9807 189.08 79.9807 188.489 79.9807 187.914C79.9807 186.828 79.9807 185.759 80.013 184.673C80.0452 182.646 80.0775 180.602 80.1097 178.558C80.1904 174.104 80.2388 169.634 80.3033 165.179C80.3033 164.317 80.3356 163.471 80.3678 162.609C80.3839 162.13 80.4001 161.651 80.4162 161.172C80.4485 160.485 80.4162 159.703 80.7065 159.064C80.9807 158.426 81.642 157.915 82.3678 157.867C83.4807 157.787 84.4968 158.538 84.6097 159.655C84.6259 159.879 84.6097 160.102 84.5614 160.31C84.5614 160.326 84.5614 160.342 84.5614 160.374C84.4001 162.609 84.4001 164.844 84.3678 167.079C84.3356 169.123 84.3194 171.166 84.2872 173.194C84.2226 177.505 84.142 181.831 84.0936 186.142C84.0775 187.675 84.0936 189.223 84.0936 190.756C84.0936 191.283 84.0614 191.858 83.8678 192.369C84.4646 192.863 84.7549 193.694 84.5291 194.476C84.4323 194.811 84.3194 195.147 84.1904 195.466C84.0291 195.865 83.7549 196.232 83.4968 196.567C83.142 197.046 82.6581 197.462 82.1581 197.797C81.3517 198.372 80.4807 198.803 79.5452 199.138C78.642 199.457 77.7388 199.681 76.8033 199.856C76.2872 199.952 75.7549 200 75.2226 200C74.6904 200 74.1743 199.952 73.6581 199.84L73.642 199.824ZM75.3033 195.961C75.5614 195.961 75.8194 195.929 76.0775 195.897C76.5936 195.801 77.0936 195.689 77.5936 195.546C78.013 195.402 78.4162 195.258 78.8194 195.099C79.013 195.003 79.2065 194.891 79.4001 194.795C79.6259 194.652 79.8356 194.508 80.0452 194.348C80.0936 194.3 80.1259 194.268 80.1743 194.221C80.2388 194.141 80.3033 194.061 80.3678 193.981C80.3678 193.981 80.3678 193.965 80.3678 193.949C80.1743 193.901 79.9807 193.853 79.7872 193.805C79.513 193.742 79.2388 193.662 78.9646 193.582C78.5775 193.486 78.2065 193.39 77.8194 193.295C77.0291 193.119 76.2226 192.959 75.4162 192.863C75.142 192.863 74.8678 192.847 74.5936 192.863C74.4323 192.863 74.2549 192.895 74.0936 192.911C73.8678 192.959 73.642 193.007 73.4162 193.071C73.3194 193.103 73.2065 193.151 73.1097 193.183C73.0291 193.215 72.9646 193.263 72.9001 193.295C72.6743 193.454 72.4485 193.614 72.2388 193.789C72.2065 193.821 72.1743 193.853 72.142 193.885C72.142 193.885 72.142 193.901 72.142 193.917C72.142 193.949 72.142 193.981 72.142 194.013C72.142 194.061 72.142 194.093 72.1581 194.141C72.142 194.077 72.1097 194.013 72.0936 193.933C72.1259 194.061 72.1743 194.189 72.2226 194.316C72.271 194.396 72.3033 194.476 72.3517 194.556C72.4162 194.652 72.4968 194.747 72.5614 194.827C72.5614 194.827 72.5452 194.811 72.5291 194.795C72.5291 194.795 72.5452 194.811 72.5614 194.827C72.5936 194.859 72.6259 194.907 72.6581 194.939C72.6259 194.907 72.6097 194.875 72.5775 194.843C72.5452 194.811 72.513 194.763 72.4807 194.731C72.5452 194.795 72.6259 194.875 72.6904 194.939C72.7872 195.019 72.8839 195.099 72.9807 195.162C73.2388 195.322 73.4968 195.482 73.7549 195.625C73.9323 195.705 74.1097 195.785 74.2872 195.849C74.3517 195.865 74.4323 195.897 74.4968 195.913C74.6097 195.929 74.7226 195.945 74.8194 195.961C74.9646 195.961 75.1097 195.961 75.2549 195.961H75.3033Z" fill="black"/>
<path d="M108.11 197.462C107.013 197.35 105.932 197.094 104.884 196.743C104.352 196.567 103.916 196.248 103.642 195.753C103.481 195.466 103.4 195.146 103.4 194.827C103.319 194.827 103.239 194.795 103.142 194.779C102.642 194.636 102.158 194.364 101.852 193.949C101.561 193.55 101.4 193.071 101.303 192.592C101.206 192.097 101.174 191.57 101.11 191.059C101.013 190.149 100.965 189.239 100.9 188.329C100.594 184.066 100.239 179.82 99.771 175.573C99.5129 173.242 99.2388 170.911 98.9646 168.58C98.6904 166.265 98.4162 163.966 98.0613 161.667C97.9968 161.3 97.9323 160.932 97.8355 160.565C97.8355 160.597 97.8517 160.629 97.8678 160.645C97.6097 159.655 98.0936 158.585 99.1097 158.202C100.126 157.819 101.368 158.33 101.739 159.368C101.9 159.815 101.965 160.31 102.061 160.773C102.174 161.395 102.255 162.018 102.352 162.657C102.497 163.631 102.61 164.604 102.723 165.578C102.997 167.83 103.255 170.081 103.513 172.316C103.997 176.531 104.416 180.73 104.739 184.96C104.852 186.365 104.932 187.786 105.045 189.191C105.271 188.984 105.497 188.792 105.723 188.601C106.561 187.866 107.432 187.148 108.303 186.445C109.158 185.775 110.029 185.104 110.965 184.529C111.9 183.971 113.094 183.619 114.174 183.907C115.206 184.178 115.981 184.801 116.626 185.615C117.223 186.35 117.61 187.307 117.803 188.217C117.981 189 118.094 189.782 118.061 190.58C118.029 191.506 117.69 192.4 117.319 193.247C117.013 193.965 116.658 194.668 116.094 195.21C115.352 195.945 114.416 196.44 113.448 196.791C112.819 197.03 112.142 197.142 111.465 197.254C110.674 197.398 109.852 197.477 109.045 197.477C108.723 197.477 108.384 197.477 108.061 197.43L108.11 197.462ZM109.255 193.486C109.771 193.454 110.271 193.406 110.771 193.326C111.158 193.263 111.561 193.183 111.948 193.087C112.142 193.023 112.319 192.959 112.513 192.879C112.674 192.8 112.836 192.72 112.997 192.624C113.045 192.592 113.094 192.544 113.158 192.512C113.19 192.48 113.223 192.464 113.255 192.432C113.271 192.4 113.303 192.384 113.319 192.353C113.352 192.305 113.384 192.257 113.4 192.209C113.577 191.842 113.723 191.49 113.868 191.107C113.916 190.948 113.981 190.772 114.013 190.612C114.013 190.548 114.029 190.501 114.045 190.437C114.045 190.373 114.045 190.309 114.045 190.245C114.029 190.006 113.997 189.766 113.965 189.543C113.916 189.351 113.868 189.143 113.819 188.952C113.771 188.808 113.706 188.649 113.658 188.505C113.594 188.377 113.529 188.265 113.448 188.138C113.416 188.09 113.384 188.042 113.352 187.994C113.336 187.978 113.319 187.962 113.303 187.93C113.158 188.01 113.013 188.074 112.884 188.154C111.787 188.872 110.771 189.702 109.755 190.532C108.965 191.203 108.19 191.89 107.416 192.576C107.223 192.752 107.029 192.927 106.852 193.103C107.094 193.167 107.336 193.231 107.594 193.294C107.965 193.374 108.336 193.422 108.706 193.47C108.9 193.47 109.11 193.47 109.303 193.47L109.255 193.486Z" fill="black"/>
<path d="M38.7713 70.0567C37.9326 70.0567 37.1422 69.9449 36.3358 69.7533C35.6422 69.6096 34.9648 69.3222 34.3358 69.0189C33.7067 68.7315 33.1261 68.3643 32.5616 67.9652C31.4003 67.135 30.4164 66.1291 29.5616 64.9796C28.6745 63.7822 28.0455 62.4251 27.6422 60.9882C27.2229 59.4715 27.2713 57.8271 27.61 56.3103C27.9326 54.8734 28.4648 53.5164 29.3358 52.303C29.7874 51.6644 30.3197 51.0737 30.9003 50.5468C31.4326 50.0678 32.0293 49.6687 32.6422 49.3015C33.9003 48.5192 35.3519 47.9763 36.7874 47.6411C37.5777 47.4495 38.4003 47.4176 39.2229 47.4335C39.8035 47.4335 40.3196 47.7049 40.6906 48.12C41.0455 48.0402 41.4003 48.0562 41.7551 48.12C42.7713 48.3436 43.7874 48.599 44.7551 48.9822C45.7067 49.3653 46.5616 49.8603 47.3842 50.451C47.8196 50.7543 48.1906 51.1215 48.5616 51.5047C49.1422 52.0795 49.5616 52.782 49.9648 53.5004C50.5132 54.4583 50.9164 55.5121 51.239 56.5658C51.4326 57.2044 51.5616 57.859 51.6422 58.5136C51.7874 59.6152 51.6422 60.7328 51.2713 61.7705C51.0777 62.2974 50.8842 62.8083 50.6422 63.3032C50.0777 64.4368 49.3358 65.4267 48.4003 66.2888C47.7551 66.8795 46.9971 67.3904 46.239 67.8534C45.1745 68.508 44.0293 68.987 42.8358 69.3063C42.0777 69.5138 41.3358 69.7054 40.5616 69.8491C39.9971 69.9449 39.4326 70.0247 38.8519 70.0247C38.8358 70.0247 38.8035 70.0247 38.7874 70.0247L38.7713 70.0567ZM38.8035 66.0333C39.1261 66.0174 39.4487 65.9695 39.7713 65.9216C40.5455 65.7779 41.3196 65.5703 42.0777 65.3468C42.4326 65.2351 42.7874 65.1073 43.1261 64.9637C43.4809 64.804 43.8197 64.6124 44.1422 64.4208C44.5938 64.1334 45.0293 63.8301 45.4487 63.4948C45.6422 63.3192 45.8358 63.1436 46.0293 62.968C46.1906 62.7923 46.3358 62.6167 46.4809 62.4251C46.61 62.2176 46.739 62.026 46.8519 61.8184C47.0132 61.4832 47.1584 61.1639 47.3035 60.8126C47.4003 60.5572 47.4809 60.2858 47.5616 60.0143C47.5616 59.9345 47.5938 59.8707 47.5938 59.7908C47.5938 59.5992 47.5938 59.4077 47.5938 59.2001C47.5938 59.0245 47.5616 58.8648 47.5455 58.6892C47.4648 58.2422 47.3519 57.8111 47.2229 57.3641C47.0777 56.9809 46.9326 56.6137 46.7874 56.2465C46.5455 55.7515 46.2874 55.2566 46.0132 54.7777C45.9326 54.6659 45.868 54.5701 45.7874 54.4743C45.6584 54.3466 45.5455 54.2189 45.4164 54.0911C45.1584 53.8676 44.9003 53.676 44.6422 53.4844C44.368 53.3088 44.0777 53.1492 43.7874 52.9895C43.4809 52.8458 43.1745 52.7341 42.8519 52.6063C42.1261 52.3828 41.3842 52.1912 40.6261 52.0156C40.239 51.9198 39.9003 51.7123 39.6584 51.4089C39.4809 51.4568 39.3035 51.4728 39.1261 51.4728C38.8842 51.4728 38.6584 51.4728 38.4326 51.4728C38.3035 51.4728 38.1745 51.4888 38.0293 51.5207C37.7067 51.5846 37.4003 51.6484 37.0938 51.7282C36.6584 51.8719 36.2229 52.0316 35.8035 52.2232C35.3519 52.4467 34.9003 52.6702 34.4648 52.9257C34.239 53.0693 34.0293 53.229 33.8196 53.3887C33.5938 53.5962 33.368 53.8038 33.1584 54.0113C32.9809 54.2189 32.8197 54.4264 32.6584 54.634C32.5132 54.8575 32.3842 55.081 32.2551 55.3045C32.1261 55.5759 32.0132 55.8473 31.9003 56.1188C31.7874 56.47 31.6906 56.8212 31.61 57.1884C31.5616 57.4918 31.5132 57.7951 31.4809 58.0985C31.4809 58.3859 31.4648 58.6732 31.4809 58.9606C31.4809 59.1203 31.5132 59.2799 31.5293 59.4396C31.5777 59.711 31.6422 59.9984 31.7229 60.2698C31.8358 60.5891 31.9487 60.8924 32.0777 61.2118C32.239 61.547 32.4326 61.8663 32.6261 62.1857C32.8519 62.5369 33.11 62.8722 33.368 63.1915C33.6422 63.4948 33.9164 63.7822 34.2067 64.0696C34.4809 64.2931 34.739 64.5166 35.0293 64.7082C35.3519 64.9158 35.6906 65.1233 36.0455 65.2989C36.3358 65.4267 36.6261 65.5544 36.9164 65.6661C37.1745 65.746 37.4326 65.8098 37.6906 65.8737C37.8842 65.9056 38.0938 65.9376 38.2874 65.9535C38.4648 65.9535 38.6422 65.9695 38.8196 65.9695L38.8035 66.0333Z" fill="black"/>
<path d="M20.1095 62.1378C18.6579 62.026 17.2385 61.8344 15.8191 61.5151C12.8998 60.8605 10.1256 59.5514 7.83527 57.6355C6.70624 56.6936 5.70624 55.6239 4.75463 54.5222C3.69011 53.2929 2.91592 51.9039 2.22237 50.467C1.98043 49.9561 1.75463 49.4292 1.54495 48.9183C1.20624 48.1041 0.996563 47.2739 0.819143 46.4118C0.367531 44.2564 0.109466 42.0372 0.0449499 39.8499C-0.0195662 37.6148 -0.0356953 35.3796 0.141724 33.1604C0.319143 30.8933 0.641724 28.6581 1.15785 26.4389C1.75463 23.8046 2.49656 21.1703 3.59334 18.6797C4.52882 16.5562 5.7385 14.5606 7.20624 12.7564C7.60947 12.2615 8.01269 11.7506 8.43205 11.2717C9.4643 10.1062 10.5772 9.03648 11.7708 8.04662C12.5127 7.42397 13.2869 6.84921 14.0933 6.30638C14.6417 5.93917 15.1901 5.54003 15.7708 5.22072C16.303 4.93334 16.8353 4.63 17.3514 4.34262C17.7708 4.10314 18.1901 3.91155 18.6256 3.71997C19.1579 3.48048 19.6901 3.1931 20.2385 2.98555C20.8191 2.76203 21.3998 2.53852 21.9966 2.315C24.3353 1.42093 26.803 0.862138 29.2869 0.526862C30.045 0.431069 30.7869 0.351241 31.545 0.287379C32.1095 0.239483 32.674 0.159655 33.2385 0.14369C34.3353 0.0798276 35.4159 0 36.5127 0C37.6095 0 38.7869 0 39.9159 0.0478966C41.0933 0.0957931 42.2546 0.159655 43.432 0.255448C44.6256 0.351241 45.8191 0.494931 46.9966 0.638621C48.0933 0.766345 49.174 0.973897 50.2546 1.14952C51.303 1.32514 52.3514 1.59655 53.3837 1.82007C54.1095 1.97972 54.8191 2.21921 55.5127 2.44272C56.1901 2.66624 56.8514 2.90572 57.4966 3.16117C58.2546 3.46452 58.9966 3.81576 59.7385 4.18297C62.7224 5.61986 65.545 7.39203 67.9804 9.64317C70.2708 11.7666 72.545 14.0497 73.8514 16.9234C74.5127 18.3763 74.9966 19.8771 75.3675 21.4257C75.6256 22.5114 75.7869 23.629 75.932 24.7306C76.0772 25.7204 76.1901 26.6943 76.2546 27.6842C76.3191 28.7539 76.3998 29.8396 76.303 30.9092C76.2546 31.468 76.2062 32.0428 76.1256 32.6016C76.045 33.1923 75.9482 33.783 75.8353 34.3738C75.6256 35.4594 75.3514 36.5291 75.0611 37.5988C74.7869 38.6046 74.4482 39.6105 74.0772 40.5684C73.674 41.6381 73.2224 42.6918 72.7385 43.7296C71.803 45.7093 70.5611 47.5293 69.2224 49.2536C67.8675 50.9619 66.2869 52.4627 64.6095 53.8677C62.932 55.2726 61.0772 56.47 59.1095 57.4439C56.6901 58.6413 54.1256 59.5354 51.5611 60.3976C50.5127 60.7488 49.3353 60.2858 48.932 59.2321C48.545 58.2262 49.0611 56.9809 50.1095 56.6297C52.2385 55.9112 54.3514 55.1609 56.3998 54.2508C57.3191 53.8198 58.2062 53.3568 59.0933 52.8459C60.0611 52.2232 60.9804 51.5686 61.8837 50.8661C62.3998 50.4351 62.932 49.988 63.4159 49.525C63.9643 48.9982 64.4804 48.4713 65.0127 47.9285C65.3998 47.4814 65.7708 47.0504 66.1256 46.5874C66.4966 46.1244 66.8353 45.6454 67.1901 45.1665C67.5288 44.6556 67.8514 44.1447 68.1579 43.6338C68.432 43.1708 68.674 42.6918 68.932 42.2288C69.432 41.1751 69.8837 40.1213 70.2869 39.0357C70.5611 38.2215 70.8353 37.4232 71.0933 36.593C71.3514 35.7787 71.5288 34.9485 71.7224 34.1343C71.8837 33.2721 72.0288 32.41 72.1579 31.5319C72.1579 31.6117 72.1579 31.7075 72.1417 31.7873C72.1901 31.3084 72.2385 30.8294 72.2546 30.3345C72.2546 29.8396 72.2546 29.3446 72.2546 28.8497C72.1417 27.2372 71.9482 25.6406 71.7224 24.0441C71.6095 23.4214 71.5127 22.7828 71.3514 22.1601C71.174 21.4736 70.9804 20.7871 70.7708 20.1166C70.803 20.1964 70.8191 20.2762 70.8514 20.372C70.6256 19.7334 70.3837 19.1267 70.1095 18.52C69.8837 18.057 69.6417 17.61 69.3675 17.1629C69.0933 16.7478 68.7869 16.3487 68.4643 15.9496C67.8514 15.2471 67.2385 14.5765 66.5933 13.906C65.9966 13.2833 65.3353 12.7086 64.7062 12.1178C63.9804 11.4952 63.2224 10.9044 62.432 10.3616C61.3191 9.61124 60.1579 8.97262 58.9966 8.30207C58.5288 8.07855 58.0611 7.85504 57.5933 7.63152C56.6901 7.20045 55.7869 6.81728 54.8353 6.482C53.803 6.13076 52.7546 5.81145 51.674 5.57197C51.0611 5.44424 50.4482 5.30055 49.8353 5.17283C48.8675 5.01317 47.8837 4.85352 46.9159 4.69386C46.4966 4.63 46.045 4.5821 45.6256 4.53421C45.0772 4.47035 44.545 4.40648 43.9966 4.34262C42.7224 4.24683 41.4643 4.15103 40.1901 4.10314C38.803 4.05524 37.4159 4.03928 36.0127 4.03928C35.174 4.07121 34.3191 4.08717 33.4804 4.15103C31.8353 4.29472 30.2062 4.42245 28.5772 4.6779C27.3514 4.90141 26.1417 5.18879 24.932 5.54003C23.8353 5.89128 22.7546 6.32234 21.674 6.73745C21.0127 7.04079 20.3514 7.34414 19.6901 7.64748C19.3675 7.79117 19.0611 7.99872 18.7546 8.15838C18.4159 8.34997 18.0772 8.54155 17.7385 8.73314C17.303 9.02052 16.8837 9.29193 16.4482 9.57931C15.6901 10.0742 14.9804 10.6171 14.2869 11.1759C13.3998 11.9422 12.545 12.7405 11.7546 13.5867C10.9482 14.4807 10.174 15.4387 9.4643 16.4285C8.86753 17.3066 8.33527 18.2007 7.83527 19.1427C7.36753 20.0687 6.9643 21.0106 6.60947 21.9845C6.2385 23.0382 5.91592 24.092 5.6256 25.1776C5.3514 26.1515 5.1256 27.1414 4.89979 28.1312C4.77076 28.8497 4.64172 29.5681 4.51269 30.2866C4.38366 30.9731 4.33527 31.6596 4.25463 32.3461C4.15785 33.5914 4.06108 34.8208 4.04495 36.0821C4.04495 37.4232 4.04495 38.7483 4.07721 40.0894C4.14172 40.8717 4.17398 41.67 4.27076 42.4523C4.36753 43.2985 4.49656 44.1447 4.6256 45.0068C4.7385 45.5816 4.8514 46.1723 5.01269 46.747C5.22237 47.3857 5.49656 48.0083 5.77076 48.631C6.1256 49.3494 6.48043 50.0679 6.89979 50.7384C7.15785 51.1216 7.41592 51.4888 7.70624 51.84C7.96431 52.1434 8.20624 52.4467 8.48043 52.7181C9.02882 53.261 9.56108 53.8038 10.1256 54.3307C10.545 54.6979 10.9804 55.0331 11.4159 55.3524C11.8675 55.6558 12.3353 55.9272 12.8191 56.1827C13.5127 56.5179 14.2224 56.8213 14.932 57.0927C15.6417 57.3322 16.3514 57.5238 17.0772 57.6834C17.8998 57.8431 18.7385 57.9548 19.5611 58.0666C20.432 58.1304 21.303 58.1783 22.174 58.2262C23.0772 58.2582 23.9643 58.2582 24.8675 58.2582C25.8514 58.2103 26.8514 58.1464 27.8353 58.0027C28.0127 57.9708 28.1901 57.9229 28.3675 57.891C28.4159 57.891 28.4482 57.859 28.4966 57.8431C28.5127 57.8431 28.5288 57.8271 28.545 57.8111C29.5127 57.2523 30.7869 57.6834 31.303 58.6413C31.8353 59.6312 31.432 60.8286 30.4643 61.3714C29.3353 62.0101 27.9482 62.0739 26.674 62.2017C25.5127 62.3294 24.3191 62.2974 23.1417 62.3134C23.1095 62.3134 23.0772 62.3134 23.0449 62.3134C22.0288 62.3134 21.0127 62.2336 19.9966 62.1697L20.1095 62.1378Z" fill="black"/>
<path d="M33.3843 33.4318C32.9488 33.0806 32.7069 32.6016 32.6262 32.0588C32.4811 31.0689 32.3036 30.079 32.2391 29.0892C32.1746 28.0834 32.4811 27.0616 33.3359 26.4549C33.7391 26.1675 34.2391 26.0238 34.7391 26.0078C34.9649 26.0078 35.1907 26.0078 35.4166 26.0078C35.7714 25.9919 36.1424 25.9599 36.4972 25.912C36.8359 25.8482 37.1585 25.7843 37.4972 25.6885C37.9004 25.5608 38.3036 25.4171 38.7069 25.2575C38.9811 25.1297 39.2391 24.986 39.4972 24.8424C39.7391 24.6827 39.9811 24.5071 40.223 24.3315C40.7069 23.9004 41.1585 23.4534 41.6101 22.9904C41.8036 22.7668 41.9811 22.5433 42.1585 22.3038C42.3036 22.0644 42.4488 21.8249 42.5778 21.5854C42.6585 21.4098 42.7391 21.2341 42.8198 21.0426C42.9327 20.7073 43.0295 20.356 43.1262 20.0048C43.1907 19.6057 43.2553 19.2225 43.3036 18.8234C43.3036 18.6477 43.3036 18.4721 43.3036 18.2965C43.3036 18.057 43.2714 17.8175 43.2391 17.594C43.1424 17.115 43.0456 16.6361 42.9004 16.1571C42.852 15.9975 42.7875 15.8218 42.7069 15.6622C42.6424 15.5504 42.594 15.4387 42.5295 15.3269C42.4811 15.2471 42.4166 15.1832 42.3682 15.1034C42.2875 15.0236 42.223 14.9437 42.1424 14.8639C42.0456 14.7841 41.9488 14.7043 41.852 14.6404C41.7714 14.5925 41.6907 14.5446 41.6101 14.4967C41.4004 14.4009 41.1746 14.3051 40.9488 14.2253C40.8036 14.1774 40.6585 14.1455 40.5133 14.0976C39.9166 13.9858 39.3036 13.89 38.6907 13.8261C38.4004 13.8102 38.1101 13.7942 37.8198 13.8102C37.5456 13.8261 37.2875 13.8581 37.0295 13.89C36.6424 13.9539 36.2553 14.0337 35.8682 14.1455C35.6907 14.2093 35.5133 14.2732 35.3359 14.353C35.1907 14.4169 35.0456 14.4967 34.9004 14.5765C34.3359 14.9278 33.8036 15.295 33.2875 15.7101C33.1101 15.8697 32.9488 16.0134 32.7714 16.189C32.6101 16.3647 32.4649 16.5403 32.3198 16.7319C32.2553 16.8277 32.1907 16.9394 32.1262 17.0512C31.9327 17.4344 31.7553 17.8175 31.594 18.2167C31.5295 18.3923 31.4811 18.5839 31.4327 18.7595C31.4327 18.7595 31.4327 18.7595 31.4327 18.7755C31.4327 19.8611 30.4327 20.7552 29.352 20.7232C28.223 20.6913 27.3682 19.7653 27.3682 18.6637C27.3682 17.8814 27.6585 17.0991 27.9488 16.3806C28.3198 15.4387 28.8359 14.5606 29.4811 13.7623C30.1262 12.98 30.9649 12.3414 31.8036 11.7506C32.4811 11.2717 33.1907 10.8725 33.9488 10.5213C34.7553 10.1541 35.6585 9.97846 36.5456 9.8667C37.6262 9.72301 38.6746 9.73898 39.7553 9.8667C40.4488 9.94653 41.1424 10.0902 41.8359 10.2499C43.1424 10.5692 44.2875 11.2876 45.2391 12.2136C46.1424 13.0917 46.6101 14.2891 46.9488 15.4546C47.2069 16.3647 47.4004 17.3705 47.3843 18.3125C47.3843 19.1906 47.2875 20.0687 47.0778 20.9308C46.9166 21.6173 46.7069 22.2719 46.4327 22.9265C46.1262 23.6609 45.6907 24.3155 45.2391 24.9541C44.852 25.481 44.3682 25.9919 43.8843 26.4389C43.4488 26.854 43.0133 27.2691 42.5295 27.6363C41.6585 28.2909 40.723 28.7699 39.7069 29.185C38.9327 29.4883 38.094 29.6959 37.2714 29.8396C36.9811 29.8875 36.7069 29.9194 36.4166 29.9513C36.4972 30.5101 36.5778 31.0689 36.6746 31.6277C36.8359 32.7134 35.9327 33.7351 34.8682 33.8469C34.8037 33.8469 34.723 33.8469 34.6585 33.8469C34.2069 33.8469 33.7553 33.6872 33.3843 33.4158V33.4318Z" fill="black"/>
<path d="M33.7713 36.5451C33.8036 35.4275 34.7391 34.5813 35.852 34.5813C36.9649 34.5813 37.8681 35.5712 37.8359 36.6409C37.8036 37.7584 36.8681 38.6046 35.7552 38.6046C34.6423 38.6046 33.7391 37.6147 33.7713 36.5451Z" fill="black"/>
<path d="M40.4002 89.1195C39.7551 88.9758 39.1905 88.7523 38.626 88.4489C38.0615 88.1456 37.5454 87.6985 37.1099 87.2675C36.2067 86.3894 35.368 85.3835 34.8841 84.2181C34.6421 83.6114 34.4325 82.9887 34.3518 82.3341C34.2551 81.5359 34.2712 80.7536 34.3518 79.9553C34.4647 78.71 34.997 77.4966 35.7551 76.5067C36.3518 75.7404 37.2228 75.2614 38.0292 74.7505C38.9647 74.1758 40.0131 73.8245 41.1099 73.6968C41.5776 73.6329 42.1099 73.6489 42.5938 73.7766C43.0292 73.4413 43.5938 73.2657 44.1583 73.3615C44.7067 73.4573 45.255 73.5691 45.7712 73.7607C46.255 73.9363 46.7228 74.1598 47.1583 74.4152C47.7873 74.7665 48.3518 75.2135 48.8357 75.7404C49.497 76.4588 49.868 77.321 50.1583 78.231C50.497 79.2847 50.6744 80.3704 50.626 81.488C50.5776 82.6215 50.1583 83.6912 49.6099 84.6651C48.9809 85.7987 48.0454 86.7247 47.0454 87.5389C46.0938 88.3052 44.9486 88.8161 43.755 89.1195C43.1905 89.2632 42.6099 89.327 42.0131 89.327C41.4647 89.327 40.9163 89.2632 40.4002 89.1514V89.1195ZM42.0938 85.2399C42.2712 85.2399 42.4486 85.2079 42.626 85.192C42.8034 85.16 42.9809 85.1121 43.1583 85.0642C43.2712 85.0163 43.4002 84.9844 43.5131 84.9365C43.7067 84.8407 43.9002 84.7449 44.0938 84.6332C44.3196 84.4895 44.5292 84.3298 44.7228 84.1702C44.9325 83.9786 45.1421 83.787 45.3357 83.5794C45.497 83.3879 45.6583 83.1963 45.8196 82.9887C45.9486 82.7971 46.0615 82.6055 46.1744 82.414C46.255 82.2543 46.3357 82.0787 46.4002 81.9031C46.4325 81.8073 46.4647 81.6955 46.4809 81.5997C46.497 81.488 46.5131 81.3922 46.5292 81.2804C46.5292 81.1687 46.5292 81.0569 46.5292 80.9611C46.5131 80.7216 46.4809 80.4821 46.4486 80.2427C46.4002 80.0032 46.3357 79.7797 46.2712 79.5561C46.1744 79.2847 46.0938 78.9973 45.9809 78.7259C45.9647 78.678 45.9325 78.6461 45.9163 78.5982C45.8841 78.5503 45.8518 78.5024 45.8196 78.4705C45.7712 78.4226 45.7228 78.3747 45.6744 78.3268C45.5776 78.247 45.4647 78.1512 45.3518 78.0713C45.1905 77.9756 45.0292 77.8798 44.868 77.784C44.6744 77.6882 44.4809 77.6083 44.2873 77.5285C44.1583 77.4966 44.0292 77.4487 43.8841 77.4168C43.7712 77.4008 43.6744 77.3848 43.5615 77.3689C43.0292 77.7999 42.3034 77.9277 41.626 77.7361C41.626 77.7361 41.626 77.7361 41.6099 77.7361C41.5615 77.7361 41.5131 77.7361 41.4647 77.7361C41.3841 77.7361 41.3034 77.752 41.2228 77.768C41.1421 77.784 41.0615 77.7999 40.9809 77.8319C40.8518 77.8798 40.7228 77.9277 40.6099 77.9756C40.2067 78.1671 39.8196 78.4066 39.4325 78.6461C39.3034 78.7259 39.1744 78.8217 39.0454 78.9175C38.997 78.9654 38.9486 79.0133 38.9002 79.0452C38.868 79.0931 38.8196 79.141 38.7873 79.1889C38.7389 79.2688 38.6905 79.3486 38.6421 79.4284C38.5615 79.5881 38.497 79.7477 38.4486 79.9233C38.4486 79.9233 38.4486 79.8914 38.4486 79.8754C38.4486 79.8754 38.4486 79.9074 38.4486 79.9233C38.4486 79.9553 38.4325 79.9872 38.4163 80.0351C38.4163 80.0032 38.4325 79.9712 38.4486 79.9553C38.4486 79.9553 38.4486 79.9712 38.4486 79.9872C38.4486 79.9872 38.4486 79.9712 38.4486 79.9553C38.4647 79.9074 38.4809 79.8595 38.497 79.7956C38.4647 79.8914 38.4325 80.0032 38.4163 80.099C38.368 80.3384 38.3357 80.5939 38.3034 80.8334C38.3034 81.025 38.3034 81.2166 38.3034 81.4081C38.3034 81.5678 38.3357 81.7434 38.3518 81.9031C38.3841 82.0627 38.4163 82.2383 38.4647 82.398C38.497 82.5098 38.5454 82.6215 38.5938 82.7333C38.6583 82.877 38.7389 83.0047 38.8196 83.1484C38.9647 83.3719 39.126 83.5794 39.2873 83.787C39.5131 84.0265 39.7389 84.266 39.9647 84.5054C40.1583 84.6651 40.3518 84.8248 40.5454 84.9844C40.6099 85.0323 40.6905 85.0642 40.7551 85.1121C40.8357 85.1441 40.9163 85.176 40.9809 85.2079C41.1099 85.2399 41.2389 85.2718 41.368 85.3037C41.368 85.3037 41.368 85.3037 41.3841 85.3037C41.3357 85.3037 41.2712 85.2878 41.2228 85.2718C41.3357 85.2718 41.4325 85.3037 41.5454 85.3197C41.7067 85.3197 41.8841 85.3197 42.0454 85.3197L42.0938 85.2399Z" fill="black"/>
</svg>
